<mxfile host="app.diagrams.net" modified="2020-12-22T04:13:14.979Z" agent="5.0 (Windows NT 6.1; Win64; x64) AppleWebKit/537.36 (KHTML, like Gecko) Chrome/85.0.4183.83 Safari/537.36" etag="FWT5lqj0MI0d3o7Md7jA" version="14.1.1" type="github">
  <diagram id="C5RBs43oDa-KdzZeNtuy" name="Page-1">
    <mxGraphModel dx="1422" dy="794" grid="1" gridSize="10" guides="1" tooltips="1" connect="1" arrows="1" fold="1" page="1" pageScale="1" pageWidth="827" pageHeight="1169" math="0" shadow="0">
      <root>
        <mxCell id="WIyWlLk6GJQsqaUBKTNV-0" />
        <mxCell id="WIyWlLk6GJQsqaUBKTNV-1" parent="WIyWlLk6GJQsqaUBKTNV-0" />
        <mxCell id="_FPMP0QSxzR21x_viGGJ-8" style="edgeStyle=orthogonalEdgeStyle;rounded=0;orthogonalLoop=1;jettySize=auto;html=1;exitX=0.02;exitY=0.98;exitDx=0;exitDy=0;exitPerimeter=0;" edge="1" parent="WIyWlLk6GJQsqaUBKTNV-1" source="_FPMP0QSxzR21x_viGGJ-3">
          <mxGeometry relative="1" as="geometry">
            <mxPoint x="362" y="319" as="targetPoint" />
            <Array as="points" />
          </mxGeometry>
        </mxCell>
        <mxCell id="_FPMP0QSxzR21x_viGGJ-3" value="App" style="verticalLabelPosition=bottom;html=1;verticalAlign=top;align=center;strokeColor=none;fillColor=#00BEF2;shape=mxgraph.azure.mobile_services;pointerEvents=1;" vertex="1" parent="WIyWlLk6GJQsqaUBKTNV-1">
          <mxGeometry x="361" y="160" width="30" height="50" as="geometry" />
        </mxCell>
        <mxCell id="_FPMP0QSxzR21x_viGGJ-6" style="edgeStyle=orthogonalEdgeStyle;rounded=0;orthogonalLoop=1;jettySize=auto;html=1;exitX=0.25;exitY=1;exitDx=0;exitDy=0;entryX=0.25;entryY=0;entryDx=0;entryDy=0;" edge="1" parent="WIyWlLk6GJQsqaUBKTNV-1" source="_FPMP0QSxzR21x_viGGJ-4" target="_FPMP0QSxzR21x_viGGJ-5">
          <mxGeometry relative="1" as="geometry" />
        </mxCell>
        <mxCell id="_FPMP0QSxzR21x_viGGJ-9" style="edgeStyle=orthogonalEdgeStyle;rounded=0;orthogonalLoop=1;jettySize=auto;html=1;entryX=0.98;entryY=0.98;entryDx=0;entryDy=0;entryPerimeter=0;" edge="1" parent="WIyWlLk6GJQsqaUBKTNV-1" target="_FPMP0QSxzR21x_viGGJ-3">
          <mxGeometry relative="1" as="geometry">
            <mxPoint x="390" y="319" as="sourcePoint" />
          </mxGeometry>
        </mxCell>
        <mxCell id="_FPMP0QSxzR21x_viGGJ-4" value="接入服务" style="rounded=0;whiteSpace=wrap;html=1;" vertex="1" parent="WIyWlLk6GJQsqaUBKTNV-1">
          <mxGeometry x="316" y="320" width="134" height="60" as="geometry" />
        </mxCell>
        <mxCell id="_FPMP0QSxzR21x_viGGJ-7" style="edgeStyle=orthogonalEdgeStyle;rounded=0;orthogonalLoop=1;jettySize=auto;html=1;exitX=0.75;exitY=0;exitDx=0;exitDy=0;entryX=0.75;entryY=1;entryDx=0;entryDy=0;" edge="1" parent="WIyWlLk6GJQsqaUBKTNV-1" source="_FPMP0QSxzR21x_viGGJ-5" target="_FPMP0QSxzR21x_viGGJ-4">
          <mxGeometry relative="1" as="geometry" />
        </mxCell>
        <mxCell id="_FPMP0QSxzR21x_viGGJ-5" value="后端服务" style="rounded=0;whiteSpace=wrap;html=1;" vertex="1" parent="WIyWlLk6GJQsqaUBKTNV-1">
          <mxGeometry x="316" y="460" width="120" height="60" as="geometry" />
        </mxCell>
        <mxCell id="_FPMP0QSxzR21x_viGGJ-11" value="ntp" style="rounded=1;whiteSpace=wrap;html=1;" vertex="1" parent="WIyWlLk6GJQsqaUBKTNV-1">
          <mxGeometry x="419" y="360" width="31" height="20" as="geometry" />
        </mxCell>
        <mxCell id="_FPMP0QSxzR21x_viGGJ-12" value="&lt;span style=&quot;color: rgb(0, 0, 0); font-family: helvetica; font-size: 12px; font-style: normal; font-weight: 400; letter-spacing: normal; text-align: center; text-indent: 0px; text-transform: none; word-spacing: 0px; background-color: rgb(248, 249, 250); display: inline; float: none;&quot;&gt;ntp&lt;/span&gt;" style="text;whiteSpace=wrap;html=1;" vertex="1" parent="WIyWlLk6GJQsqaUBKTNV-1">
          <mxGeometry x="400" y="490" width="40" height="30" as="geometry" />
        </mxCell>
      </root>
    </mxGraphModel>
  </diagram>
</mxfile>
